<?xml version="1.0" encoding="UTF-8" standalone="no"?>
<!DOCTYPE svg PUBLIC "-//W3C//DTD SVG 20010904//EN" "http://www.w3.org/TR/2001/REC-SVG-20010904/DTD/svg10.dtd">
<svg version="1.0" xmlns="http://www.w3.org/2000/svg" width="900.000000pt" height="900.000000pt" viewBox="0 0 900.000000 900.000000" preserveAspectRatio="xMidYMid meet">
<metadata>
Created by potrace 1.10, written by Peter Selinger 2001-2011
</metadata>
<g transform="translate(0.000000,900.000000) scale(0.100000,-0.100000)" fill="#000000" stroke="none">
<path d="M833 6903 c-19 -9 -33 -24 -33 -34 0 -10 -7 -24 -15 -33 -18 -18 -19 -38 -3 -54 8 -8 13 -41 13 -85 0 -68 1 -72 24 -75 34 -5 42 14 35 84 -6 56 -5 63 15 73 27 15 27 41 1 48 -12 3 -19 10 -17 16 4 13 53 28 61 19 3 -3 6 -48 6 -101 1 -108 16 -141 64 -141 30 0 36 29 11 50 -13 11 -16 34 -14 117 1 58 -3 109 -8 114 -6 6 -19 6 -35 0 -19 -7 -31 -6 -44 4 -23 17 -21 17 -61 -2z"/>
<path d="M3163 6905 c-19 -14 -20 -22 -16 -127 6 -125 18 -158 58 -158 20 0 25 5 25 24 0 13 -7 30 -16 37 -14 12 -16 28 -10 115 7 113 -2 137 -41 109z"/>
<path d="M6112 6907 c-13 -15 -12 -270 1 -283 4 -5 16 -3 26 3 11 7 23 8 32 2 28 -18 73 -10 96 18 18 20 23 38 23 83 0 72 -25 100 -88 100 -41 0 -42 1 -40 31 4 38 -31 69 -50 46z m119 -151 c7 -14 9 -36 5 -51 -6 -22 -11 -26 -39 -23 -28 3 -32 7 -35 36 -6 59 47 87 69 38z"/>
<path d="M1483 6898 c-20 -9 -23 -19 -23 -65 0 -38 -4 -55 -15 -59 -8 -4 -15 -14 -15 -24 0 -10 7 -23 15 -30 9 -7 15 -29 15 -54 0 -45 15 -73 40 -76 50 -7 63 9 35 40 -22 25 -48 131 -35 144 5 5 10 22 10 37 0 17 8 34 21 43 45 31 3 69 -48 44z"/>
<path d="M1705 6898 c-2 -7 -5 -26 -7 -43 -3 -28 -5 -30 -43 -27 -60 5 -80 -22 -80 -103 0 -55 3 -65 25 -84 28 -22 60 -27 77 -10 8 8 17 8 33 -1 46 -25 51 -11 48 137 -3 135 -4 138 -26 141 -12 2 -24 -3 -27 -10z m-17 -127 c8 -5 12 -23 10 -47 -2 -32 -7 -40 -26 -42 -31 -5 -52 15 -52 47 0 43 34 64 68 42z"/>
<path d="M2415 6890 c-3 -11 -3 -25 1 -32 4 -6 6 -63 5 -126 l-3 -113 29 3 28 3 2 95 c1 75 -1 98 -14 112 -14 16 -14 18 -1 18 21 0 31 29 17 46 -17 21 -57 17 -64 -6z"/>
<path d="M2927 6904 c-9 -9 4 -267 14 -278 5 -5 15 -4 24 4 12 10 19 10 27 2 20 -20 61 -13 90 15 24 23 28 35 28 79 0 73 -26 104 -86 104 -42 0 -44 1 -42 28 1 15 -1 33 -6 40 -8 13 -38 16 -49 6z m123 -145 c6 -11 8 -33 5 -50 -5 -24 -12 -29 -36 -29 -41 0 -59 38 -35 75 20 30 51 33 66 4z"/>
<path d="M4912 6898 c-16 -16 -15 -23 5 -43 12 -13 13 -19 4 -24 -8 -5 -11 -38 -9 -107 l3 -99 28 -3 29 -3 -2 113 c-2 62 1 121 5 131 4 9 5 24 1 32 -7 18 -47 20 -64 3z"/>
<path d="M5509 6898 c-3 -7 -3 -73 -1 -146 l4 -133 26 3 c26 3 27 5 28 71 1 72 10 91 40 85 16 -3 19 -14 22 -81 l3 -78 27 3 c26 3 27 5 30 73 3 53 -1 78 -14 104 -17 31 -21 33 -61 28 l-42 -4 -3 41 c-3 36 -6 41 -29 44 -15 2 -28 -2 -30 -10z"/>
<path d="M8085 6893 c-4 -12 1 -23 14 -32 15 -9 21 -24 21 -50 0 -20 5 -42 12 -49 9 -9 9 -15 0 -24 -7 -7 -12 -26 -12 -44 0 -17 -9 -43 -21 -58 -40 -51 6 -78 55 -32 20 18 26 33 26 64 0 23 7 47 15 56 8 8 15 21 15 29 0 8 -7 17 -15 21 -10 3 -15 19 -15 48 0 49 -6 60 -37 77 -31 16 -50 14 -58 -6z"/>
<path d="M4396 6892 c-33 -7 -81 -38 -81 -53 0 -9 13 -15 33 -17 l33 -3 -3 -67 c-3 -65 -4 -67 -32 -72 -33 -5 -32 -5 -24 -37 6 -21 12 -23 87 -23 l81 0 0 29 c0 25 -4 30 -27 33 l-28 3 3 101 c4 106 0 115 -42 106z"/>
<path d="M4595 6893 c-11 -3 -32 -19 -47 -36 -25 -27 -28 -39 -28 -97 0 -58 3 -69 31 -103 25 -31 37 -37 67 -37 68 1 112 63 91 127 -14 42 -41 57 -90 49 -30 -5 -39 -3 -39 8 0 27 27 38 74 31 45 -7 46 -7 46 19 0 37 -45 54 -105 39z m51 -154 c24 -27 8 -54 -32 -54 -23 0 -30 5 -32 23 -4 25 13 52 33 52 6 0 20 -9 31 -21z"/>
<path d="M7066 6893 c-30 -8 -56 -45 -44 -60 13 -16 33 -16 57 -1 10 6 26 8 35 5 25 -10 15 -40 -14 -47 -16 -4 -26 -14 -28 -28 -3 -18 1 -22 26 -22 38 0 60 -24 42 -45 -7 -8 -23 -15 -35 -15 -12 0 -28 7 -35 15 -7 8 -23 15 -36 15 -35 0 -32 -40 6 -68 37 -27 96 -29 128 -3 25 22 30 73 10 116 -9 19 -9 28 0 37 18 18 14 63 -7 82 -20 18 -74 28 -105 19z"/>
<path d="M7297 6892 c-16 -2 -34 -14 -44 -29 -14 -21 -15 -30 -4 -59 11 -30 10 -39 -3 -59 -23 -34 -20 -59 10 -94 35 -43 89 -43 133 -2 34 31 39 64 16 95 -9 12 -12 33 -8 65 4 37 2 49 -13 62 -22 19 -49 26 -87 21z m50 -61 c15 -25 -6 -46 -37 -36 -22 7 -26 25 -8 43 17 17 31 15 45 -7z m17 -106 c10 -28 -5 -45 -40 -45 -36 0 -51 17 -40 45 3 9 18 15 40 15 21 0 36 -6 40 -15z"/>
<path d="M7704 6890 c-42 -17 -64 -63 -64 -133 0 -59 3 -67 33 -101 26 -28 41 -36 68 -36 64 1 109 57 109 137 0 62 -23 107 -67 128 -35 17 -48 18 -79 5z m67 -60 c15 -9 19 -22 19 -69 0 -66 -13 -84 -57 -79 -27 3 -28 5 -31 68 -2 52 0 67 14 77 22 16 30 16 55 3z"/>
<path d="M7921 6888 c-27 -14 -49 -44 -39 -53 6 -6 16 -6 78 -2 29 2 35 -1 35 -18 0 -13 -8 -21 -22 -23 -26 -4 -47 -27 -38 -42 3 -5 19 -10 35 -10 29 0 44 -19 34 -45 -4 -8 -18 -15 -34 -15 -15 0 -33 7 -40 15 -21 25 -50 19 -50 -11 0 -59 92 -85 150 -42 24 17 30 29 30 59 0 20 -7 42 -15 49 -8 7 -15 18 -15 25 0 7 7 18 15 25 53 44 -59 122 -124 88z"/>
<path d="M7466 6867 c-23 -18 -26 -25 -15 -34 8 -6 22 -12 32 -14 15 -3 19 -15 21 -66 l2 -63 -33 -11 c-27 -8 -33 -16 -31 -32 3 -20 10 -22 86 -25 l82 -3 0 31 c0 25 -4 30 -25 30 -14 0 -25 6 -26 13 0 6 0 54 1 105 l1 92 -33 0 c-19 0 -45 -10 -62 -23z"/>
<path d="M5355 6843 c-29 -32 -31 -46 -10 -63 10 -8 15 -30 15 -64 0 -66 29 -99 81 -94 29 2 34 7 34 28 0 18 -7 26 -25 30 -21 5 -25 12 -28 48 -3 37 0 43 22 54 32 14 35 48 5 48 -12 0 -23 8 -26 20 -7 28 -38 25 -68 -7z"/>
<path d="M6720 6845 c-22 -24 -23 -26 -7 -62 9 -21 16 -58 16 -82 0 -54 22 -81 68 -81 25 0 33 -4 33 -18 0 -33 21 -42 102 -42 l78 0 0 29 c0 36 -18 42 -111 34 l-69 -6 0 31 c0 24 -5 31 -22 34 -16 2 -25 12 -29 33 -7 36 6 66 25 59 16 -6 40 31 31 46 -3 6 -15 10 -25 10 -11 0 -24 9 -30 20 -14 27 -32 25 -60 -5z"/>
<path d="M1356 6845 c-11 -8 -34 -15 -52 -15 -51 0 -65 -28 -57 -118 5 -63 4 -76 -10 -84 -19 -10 -23 -53 -6 -64 27 -17 86 -23 124 -13 45 13 55 23 55 61 0 31 -26 52 -77 63 -48 10 -49 24 -3 31 43 7 60 26 60 66 -1 13 2 38 6 56 7 36 -7 42 -40 17z m-18 -83 c3 -17 -1 -22 -21 -22 -31 0 -38 9 -26 32 13 25 43 19 47 -10z m3 -143 c27 -14 14 -29 -25 -29 -39 0 -50 8 -35 27 14 16 33 17 60 2z"/>
<path d="M2056 6833 c-24 -6 -55 -42 -56 -64 0 -22 40 -57 70 -61 14 -2 25 -10 25 -18 0 -12 -10 -14 -47 -12 -55 4 -65 -14 -23 -42 53 -35 125 -5 125 52 0 33 -12 46 -52 56 -19 4 -28 13 -28 26 0 16 5 18 35 13 31 -5 35 -3 35 16 0 14 -9 25 -26 31 -27 11 -28 11 -58 3z"/>
<path d="M2580 6831 c-30 -8 -70 -65 -70 -98 0 -29 15 -59 43 -90 26 -29 83 -30 115 -3 31 25 25 56 -8 51 -14 -2 -38 -4 -55 -5 -28 -1 -30 2 -33 36 -4 43 24 66 56 49 23 -12 62 -3 62 14 0 32 -64 59 -110 46z"/>
<path d="M4014 6824 c-90 -44 -63 -204 34 -204 43 0 88 30 79 53 -4 12 -13 13 -43 7 -23 -5 -45 -5 -56 1 -34 18 -18 29 41 29 61 0 71 7 71 50 0 26 -39 67 -70 74 -14 3 -39 -2 -56 -10z m55 -53 c12 -22 5 -31 -24 -31 -31 0 -37 11 -18 32 20 23 30 23 42 -1z"/>
<path d="M5060 6833 c-68 -25 -64 -103 7 -122 46 -12 36 -37 -13 -33 -51 4 -64 -12 -32 -38 51 -43 138 -10 138 52 0 31 -14 43 -57 53 -24 5 -33 12 -33 27 0 15 4 18 18 13 9 -4 27 -10 40 -12 19 -5 22 -1 22 25 0 25 -5 30 -31 36 -35 7 -38 7 -59 -1z"/>
<path d="M5790 6831 c-33 -9 -70 -66 -70 -107 0 -51 51 -104 99 -104 36 1 81 28 81 50 0 8 -15 11 -42 10 -65 -4 -78 -1 -78 15 0 12 13 15 59 15 54 0 59 2 65 24 15 62 -47 115 -114 97z m45 -67 c0 -22 -32 -31 -49 -14 -8 8 -6 15 9 26 24 18 40 13 40 -12z"/>
<path d="M1052 6818 c-17 -17 -15 -48 4 -48 8 0 25 5 36 11 16 9 23 8 29 -2 14 -23 4 -34 -37 -39 -31 -4 -40 -10 -48 -33 -21 -59 54 -118 89 -70 13 17 14 17 33 -1 34 -30 42 -12 35 72 -8 102 -22 122 -82 122 -26 0 -52 -5 -59 -12z m74 -136 c-17 -17 -46 -9 -46 12 0 18 30 26 48 13 11 -8 10 -13 -2 -25z"/>
<path d="M1825 6798 c-24 -28 -27 -39 -22 -82 3 -40 10 -54 33 -73 16 -13 42 -23 57 -23 34 0 77 27 77 47 0 12 -9 15 -44 11 -43 -5 -76 5 -76 22 0 5 26 10 58 12 l57 3 3 39 c4 50 -22 76 -77 76 -32 0 -44 -6 -66 -32z m85 -23 c15 -19 5 -35 -24 -35 -32 0 -39 10 -19 32 20 22 27 22 43 3z"/>
<path d="M2188 6720 c-1 -60 -2 -122 -2 -137 -1 -25 3 -28 29 -28 28 0 30 2 27 37 -3 40 11 56 33 38 43 -36 110 34 102 107 -7 62 -30 93 -70 93 -18 0 -38 -5 -44 -11 -8 -8 -13 -8 -17 0 -4 6 -18 11 -32 11 -24 0 -24 -1 -26 -110z m127 44 c36 -37 -5 -102 -52 -83 -18 6 -23 16 -23 43 0 50 42 73 75 40z"/>
<path d="M2738 6816 c-10 -7 -18 -21 -18 -31 0 -14 5 -16 28 -11 51 12 57 11 57 -9 0 -15 -9 -21 -39 -26 -21 -3 -42 -12 -47 -20 -11 -16 -4 -66 12 -86 16 -19 66 -16 78 4 9 17 10 17 28 0 29 -25 53 -22 53 7 0 14 -4 28 -10 31 -5 3 -10 32 -10 64 0 43 -5 62 -18 74 -22 20 -90 22 -114 3z m80 -123 c-4 -20 -27 -27 -47 -14 -19 12 -4 31 25 31 19 0 25 -5 22 -17z"/>
<path d="M3282 6807 c-34 -36 -31 -121 5 -159 31 -33 79 -37 118 -12 45 29 21 63 -31 44 -17 -7 -32 -6 -46 1 -30 16 -10 27 52 31 53 3 55 4 58 34 2 19 -5 40 -18 57 -29 37 -105 39 -138 4z m87 -36 c12 -22 5 -31 -26 -31 -24 0 -27 7 -17 34 8 22 31 20 43 -3z"/>
<path d="M3632 6728 c3 -102 3 -103 28 -103 24 0 25 3 28 72 2 63 6 73 24 79 30 9 40 -13 33 -73 -6 -64 1 -83 31 -83 23 0 24 3 24 69 0 71 14 99 44 88 11 -4 16 -26 18 -79 3 -71 4 -73 31 -76 l27 -3 0 83 c0 98 -14 128 -61 128 -16 0 -38 -6 -49 -12 -15 -10 -22 -10 -32 0 -15 15 -60 16 -75 1 -8 -8 -13 -8 -17 0 -4 6 -18 11 -32 11 l-25 0 3 -102z"/>
<path d="M6362 6818 c-47 -61 -49 -116 -5 -168 29 -35 78 -40 118 -14 40 26 32 46 -17 44 -65 -4 -78 -1 -78 15 0 10 15 15 58 17 56 3 57 3 60 35 5 53 -23 82 -79 83 -26 0 -51 -6 -57 -12z m77 -47 c12 -22 5 -31 -25 -31 -30 0 -38 15 -18 34 20 21 31 20 43 -3z"/>
<path d="M6547 6812 c-9 -10 -17 -29 -17 -41 0 -27 37 -60 68 -61 12 0 22 -6 22 -14 0 -22 -14 -26 -49 -16 -25 7 -33 6 -38 -6 -9 -25 26 -54 66 -54 51 1 83 30 79 72 -2 27 -9 35 -36 44 -43 14 -60 30 -44 46 8 8 15 8 24 0 18 -15 41 1 36 24 -5 28 -87 32 -111 6z"/>
<path d="M3453 6623 c-7 -2 -13 -18 -13 -34 l0 -29 78 0 c80 0 102 9 102 41 0 11 -11 19 -31 23 -36 7 -118 7 -136 -1z"/>
<path d="M4155 6616 c-16 -12 -18 -18 -9 -33 9 -14 27 -19 86 -21 74 -3 76 -2 82 24 4 14 6 28 4 29 -2 2 -34 6 -73 10 -54 5 -75 3 -90 -9z"/>
<path d="M4730 6615 c-6 -8 -9 -23 -5 -35 6 -19 13 -21 82 -18 60 2 78 7 87 21 9 15 7 21 -8 33 -27 19 -139 19 -156 -1z"/>
<path d="M5186 6622 c-12 -3 -16 -11 -14 -30 3 -27 4 -27 83 -27 79 0 80 0 83 27 2 18 -2 28 -15 32 -18 6 -103 4 -137 -2z"/>
<path d="M5923 6620 c-26 -11 -27 -14 -13 -41 9 -16 22 -19 89 -19 70 0 79 2 84 20 9 34 -18 50 -81 49 -31 0 -67 -4 -79 -9z"/>
<path d="M4656 5835 c-15 -8 -34 -15 -42 -15 -17 0 -98 -41 -102 -52 -2 -4 -9 -8 -16 -8 -25 0 -165 -132 -166 -156 0 -6 -7 -17 -15 -24 -8 -7 -15 -23 -15 -36 0 -13 -4 -24 -9 -24 -5 0 -13 -9 -16 -20 -7 -23 2 -60 15 -60 10 0 60 83 60 100 0 18 75 114 112 142 54 41 148 86 204 97 65 13 112 1 147 -39 40 -44 84 -132 91 -183 7 -46 36 -84 55 -72 14 8 14 52 1 60 -5 3 -10 17 -10 30 0 22 -35 102 -50 115 -3 3 -13 17 -23 32 -27 43 -20 80 8 42 7 -10 32 -19 63 -22 39 -3 56 -11 74 -31 27 -31 68 -111 68 -134 0 -9 4 -18 9 -21 4 -3 11 -24 15 -46 5 -32 10 -41 24 -38 20 4 22 65 4 101 -7 12 -16 33 -22 47 -10 24 -15 34 -38 75 -7 11 -15 26 -19 34 -21 45 -49 55 -223 81 -36 5 -79 16 -95 24 -37 20 -52 20 -89 1z"/>
<path d="M5097 5753 c-15 -14 -6 -35 31 -74 44 -48 112 -148 112 -166 0 -7 4 -13 9 -13 5 0 13 -9 16 -20 7 -24 30 -26 39 -5 6 18 -2 45 -15 45 -5 0 -9 9 -9 19 0 11 -6 26 -14 33 -7 8 -16 24 -20 35 -12 36 -137 159 -149 146z"/>
<path d="M4535 5434 c-33 -8 -80 -21 -105 -29 -25 -8 -58 -15 -73 -15 -52 0 -103 -83 -59 -96 9 -3 25 -10 36 -16 15 -8 23 -4 46 23 l27 33 47 -41 c45 -40 85 -91 99 -125 9 -24 37 -12 37 16 0 11 -11 39 -25 61 -13 22 -25 48 -25 59 0 11 -5 16 -14 13 -18 -7 -67 15 -63 27 5 14 115 49 133 42 13 -5 15 -19 13 -73 l-4 -67 33 -8 c17 -5 53 -20 80 -34 38 -21 66 -26 150 -31 59 -4 102 -10 102 -16 0 -6 7 -18 16 -28 9 -10 14 -25 11 -32 -7 -18 -98 -12 -141 9 -33 16 -66 4 -66 -25 0 -17 13 -19 133 -23 72 -3 136 -2 140 2 4 4 10 23 13 42 6 33 4 36 -39 62 -42 24 -45 28 -37 54 5 15 16 51 25 80 9 28 22 52 30 52 21 0 92 -77 115 -125 30 -63 45 -73 78 -53 36 22 57 98 40 146 -10 26 -10 37 0 50 18 25 25 42 20 48 -3 2 -47 7 -97 10 -51 3 -104 9 -117 15 -41 15 -489 9 -559 -7z m228 -24 c7 0 1 -9 -12 -19 -34 -26 -19 -46 20 -25 24 12 46 14 97 8 37 -3 78 -11 91 -15 21 -9 23 -13 16 -57 -11 -77 -17 -82 -90 -82 -35 0 -67 5 -70 10 -3 6 -17 10 -29 10 -13 0 -35 9 -50 21 -19 15 -34 19 -55 14 -32 -7 -47 6 -37 32 5 12 9 14 18 5 18 -18 35 -14 41 10 8 28 -10 50 -34 43 -20 -7 -32 7 -23 29 5 14 63 26 92 19 8 -2 19 -3 25 -3z m242 -28 c-8 -9 -35 20 -28 31 4 6 11 3 19 -8 8 -10 12 -21 9 -23z m101 23 c-26 -20 -76 -20 -76 0 0 11 12 15 48 15 43 -1 46 -2 28 -15z m134 -64 c15 -29 12 -61 -6 -68 -20 -8 -82 24 -95 49 -15 28 -2 38 46 38 34 0 47 -5 55 -19z"/>
<path d="M4263 5192 c-36 -14 -44 -22 -49 -49 -5 -29 0 -39 45 -90 28 -31 51 -63 51 -70 0 -7 4 -13 8 -13 4 0 20 -19 35 -42 15 -24 39 -56 53 -73 68 -78 77 -93 70 -130 -11 -56 -56 -89 -161 -115 -27 -7 -54 -17 -60 -21 -5 -5 -21 -9 -35 -9 -14 0 -35 -7 -46 -15 -10 -8 -29 -15 -40 -15 -12 0 -27 -7 -34 -15 -7 -8 -20 -15 -30 -15 -10 0 -23 -6 -29 -14 -6 -7 -78 -46 -159 -86 -81 -39 -160 -78 -175 -86 -16 -8 -33 -14 -39 -14 -11 0 -46 -15 -143 -61 -54 -26 -241 -142 -272 -169 -7 -5 -17 -10 -22 -10 -5 0 -16 -6 -23 -13 -7 -7 -49 -34 -93 -61 -69 -41 -107 -69 -197 -146 -23 -19 -23 -53 0 -73 26 -23 37 -21 89 13 24 17 47 30 50 30 4 0 14 7 24 16 11 10 19 12 24 5 3 -6 -1 -14 -9 -17 -26 -10 -20 -53 9 -66 21 -9 30 -7 65 17 53 36 152 144 145 156 -13 20 -43 7 -73 -30 -17 -22 -46 -46 -63 -55 -25 -12 -29 -13 -19 -1 16 19 3 40 -15 25 -10 -8 -19 -8 -33 1 -20 13 -28 11 -77 -20 -35 -23 -45 -25 -45 -10 0 11 60 69 72 69 13 0 152 88 180 115 46 42 78 30 78 -30 0 -20 10 -46 41 -105 16 -29 52 -105 67 -140 8 -19 21 -47 29 -62 7 -14 13 -31 13 -37 0 -6 12 -30 27 -54 47 -72 51 -84 58 -162 4 -41 11 -78 16 -81 5 -3 9 -12 9 -21 0 -18 15 -52 82 -193 48 -100 58 -122 94 -205 8 -19 21 -49 29 -67 7 -18 21 -49 29 -70 9 -20 16 -43 16 -51 0 -8 7 -28 15 -43 8 -16 15 -37 15 -48 0 -10 7 -41 16 -70 9 -28 22 -71 30 -96 8 -25 14 -57 14 -72 0 -15 5 -39 11 -54 5 -16 14 -58 20 -94 5 -36 16 -99 25 -140 8 -41 19 -116 24 -167 6 -51 15 -104 20 -118 6 -15 10 -40 10 -56 0 -22 8 -34 33 -49 17 -11 44 -20 58 -20 28 0 61 -38 73 -83 10 -43 26 -31 26 21 l0 47 88 43 c48 24 122 65 165 93 101 64 184 109 202 109 9 0 23 -4 33 -9 54 -26 90 -41 115 -47 15 -3 30 -10 33 -15 3 -5 13 -9 22 -9 9 -1 35 -9 57 -20 22 -11 43 -19 47 -20 16 0 48 -35 48 -53 0 -27 30 -67 51 -67 10 0 21 -4 24 -10 3 -5 20 -10 36 -10 16 0 46 -7 67 -16 23 -10 77 -18 143 -21 96 -5 108 -4 126 14 11 11 25 17 32 15 19 -6 61 7 61 20 0 15 -48 58 -64 58 -8 0 -19 7 -26 15 -7 8 -22 15 -34 15 -11 0 -30 7 -40 15 -11 8 -28 15 -39 15 -10 0 -25 7 -33 15 -9 8 -24 15 -34 15 -10 0 -22 5 -25 10 -8 13 -35 13 -35 0 0 -24 61 -63 165 -105 60 -24 70 -31 73 -49 3 -14 -9 -16 -97 -16 -98 0 -101 1 -101 23 0 16 -12 28 -42 45 -52 27 -52 27 -88 0 -26 -19 -32 -20 -55 -8 -14 7 -25 17 -25 20 0 16 57 63 100 81 l46 20 -1 117 c0 64 5 135 12 157 12 41 29 160 43 295 4 41 12 89 18 105 12 33 26 88 48 185 8 36 19 121 25 190 5 69 13 136 18 150 5 14 12 48 16 75 4 28 17 69 30 92 13 23 33 75 45 115 13 40 26 78 30 83 4 6 11 26 15 45 4 19 11 41 15 50 4 8 18 38 31 65 12 28 32 64 44 80 13 17 37 57 55 90 18 33 41 71 51 84 11 13 19 37 19 53 0 28 2 27 51 -32 27 -33 67 -71 87 -85 62 -41 95 -72 84 -79 -12 -7 -96 40 -153 85 -36 28 -79 39 -79 19 0 -14 30 -42 75 -70 22 -13 42 -27 45 -31 3 -3 28 -16 55 -29 28 -12 64 -35 80 -50 34 -32 50 -37 83 -26 33 11 28 47 -12 84 -19 17 -40 39 -47 49 -8 10 -43 41 -79 68 -61 45 -99 81 -160 151 -14 16 -40 40 -59 54 -19 14 -48 40 -65 58 -34 37 -155 122 -174 122 -7 0 -12 4 -12 10 0 5 -11 12 -25 16 -14 3 -25 10 -25 14 0 5 -10 12 -21 15 -12 4 -85 46 -163 92 -119 72 -206 122 -286 164 -8 4 -36 17 -61 29 -25 12 -62 38 -83 57 -36 34 -38 35 -57 17 -10 -9 -21 -15 -22 -13 -2 2 -14 21 -26 42 -17 28 -29 37 -45 35 -17 -2 -22 -12 -27 -46 -3 -24 -11 -47 -17 -51 -7 -4 -13 -29 -15 -57 -3 -48 -22 -76 -22 -31 0 29 -31 35 -38 6 -7 -27 6 -55 33 -69 15 -8 23 -6 40 12 11 12 20 32 20 45 0 13 7 26 15 29 8 4 15 18 15 33 0 14 5 33 10 41 8 13 11 13 26 -2 14 -14 15 -22 5 -49 -6 -17 -11 -61 -11 -95 0 -62 -1 -64 -25 -64 -28 0 -29 -4 -14 -49 12 -33 39 -43 39 -13 0 9 7 30 15 46 8 15 15 34 15 41 0 7 10 19 22 27 l22 15 -22 12 c-30 16 -29 61 1 89 l23 22 28 -29 c16 -16 58 -44 95 -62 36 -18 68 -35 71 -38 3 -3 28 -17 55 -31 44 -22 131 -76 145 -90 3 -3 40 -23 83 -44 42 -22 77 -43 77 -47 0 -4 11 -10 25 -13 26 -7 171 -91 193 -113 7 -7 16 -13 20 -13 4 0 29 -20 55 -45 27 -25 55 -45 64 -45 10 0 12 -6 8 -19 -3 -11 0 -23 7 -27 6 -4 14 -2 16 4 2 7 9 12 15 12 8 0 7 -4 -1 -12 -7 -7 -12 -22 -12 -35 0 -15 -8 -27 -23 -32 -13 -5 -29 -16 -36 -25 -24 -29 -76 -9 -179 69 -53 39 -115 82 -137 95 -22 14 -45 29 -52 35 -6 5 -41 30 -78 55 -169 115 -324 232 -376 283 -15 15 -32 27 -38 27 -6 0 -11 -12 -11 -27 0 -38 28 -62 230 -203 8 -6 76 -54 150 -106 74 -53 146 -103 160 -112 14 -9 27 -19 30 -22 3 -4 42 -34 86 -68 113 -85 144 -118 144 -152 0 -16 -4 -31 -9 -35 -5 -3 -12 -18 -16 -33 -3 -15 -14 -38 -24 -51 l-19 -25 -30 30 c-16 16 -40 36 -52 44 -12 8 -34 25 -48 38 -15 13 -45 36 -67 50 -22 15 -51 37 -65 50 -14 13 -41 33 -60 45 -19 12 -44 30 -55 40 -30 27 -122 87 -134 87 -6 0 -11 -3 -11 -7 0 -7 70 -74 117 -110 15 -12 41 -34 57 -48 16 -14 32 -25 35 -25 3 0 17 -10 31 -23 14 -12 66 -54 115 -92 50 -38 105 -84 124 -101 l34 -32 -22 -60 c-26 -68 -59 -106 -84 -96 -10 3 -17 10 -17 15 0 5 -6 9 -14 9 -8 0 -54 37 -103 82 -116 109 -143 138 -143 157 0 17 -30 78 -92 191 -20 36 -44 81 -54 100 -11 19 -21 37 -24 40 -7 6 -94 185 -109 223 -15 38 -31 25 -31 -24 0 -50 -23 -49 -30 1 -3 18 -11 35 -17 38 -19 6 -17 -76 2 -94 19 -19 21 -88 3 -82 -7 3 -14 19 -16 37 -2 22 -11 35 -28 43 -27 13 -42 5 -27 -14 6 -7 13 -29 17 -48 12 -64 66 -104 66 -49 0 34 25 15 28 -21 2 -19 10 -43 18 -54 8 -11 14 -30 14 -42 0 -12 7 -24 15 -28 9 -3 15 -18 15 -40 0 -21 6 -36 15 -40 8 -3 15 -18 15 -33 0 -15 7 -37 15 -47 10 -13 15 -43 15 -81 0 -56 -2 -63 -25 -73 -16 -7 -80 -12 -158 -12 -73 -1 -152 -5 -177 -11 -25 -5 -79 -14 -120 -18 -76 -9 -135 -32 -157 -60 -10 -14 -12 -14 -18 2 -4 9 -6 50 -3 90 3 62 8 80 31 110 15 20 27 46 27 59 0 13 7 36 15 52 16 31 20 102 6 110 -10 6 -21 -16 -21 -42 0 -9 -12 -28 -26 -43 -20 -21 -28 -42 -32 -79 -4 -49 -17 -61 -39 -39 -8 8 -13 -4 -18 -46 -5 -33 -13 -59 -21 -62 -8 -3 -14 -12 -14 -20 0 -8 -9 -26 -20 -40 -11 -14 -20 -32 -20 -39 0 -8 -4 -14 -9 -14 -5 0 -14 -12 -20 -27 -6 -16 -25 -50 -41 -78 -17 -27 -36 -61 -43 -75 -6 -14 -14 -27 -18 -30 -6 -5 -12 -17 -59 -107 -14 -26 -27 -50 -30 -53 -7 -6 -36 -70 -44 -93 -9 -28 -39 -16 -49 18 -5 17 -13 44 -19 60 -28 81 -27 144 2 178 6 6 26 35 43 62 71 108 122 182 154 220 19 22 37 45 41 50 28 40 144 183 180 223 12 14 39 47 59 74 21 26 42 49 48 49 5 1 19 2 30 3 15 1 21 11 27 51 5 28 13 58 18 67 16 28 12 109 -7 130 -14 16 -14 18 0 18 32 0 47 29 47 93 0 51 4 66 21 80 13 12 19 27 17 45 -3 26 -6 27 -55 27 -42 -1 -71 -10 -150 -50 -54 -27 -100 -53 -103 -56 -3 -3 -16 -10 -30 -14 -14 -4 -27 -10 -30 -14 -3 -3 -116 -62 -253 -131 -163 -82 -253 -132 -263 -149 -23 -34 -66 -70 -85 -71 -9 0 -22 7 -29 15 -7 8 -20 15 -30 15 -10 0 -23 7 -30 15 -7 8 -21 15 -32 15 -19 0 -22 5 -32 52 -6 24 -2 29 30 43 47 19 54 19 54 -4 0 -10 7 -25 16 -32 14 -11 19 -10 35 10 11 13 19 34 19 48 0 22 -3 24 -26 19 -21 -6 -25 -3 -22 10 3 17 72 63 96 64 7 0 20 7 28 15 9 8 24 15 35 15 10 0 19 -7 19 -15 0 -9 -9 -15 -23 -15 -25 0 -72 -42 -60 -53 9 -9 41 -9 45 1 5 11 66 52 78 52 6 0 18 4 28 10 9 5 29 14 45 20 31 11 36 30 8 30 -11 0 -23 5 -26 10 -3 6 3 10 14 10 11 0 23 -4 26 -10 3 -5 16 -10 29 -10 28 0 106 37 106 50 0 6 15 10 33 10 17 0 41 7 51 15 11 8 26 15 34 15 7 0 20 7 28 15 9 8 24 15 35 15 10 0 19 4 19 9 0 5 10 13 23 16 12 4 36 12 52 20 17 7 41 18 55 23 14 6 46 20 72 31 26 12 51 21 56 21 6 0 12 7 16 15 3 8 12 15 20 15 7 0 16 7 20 15 3 8 13 15 23 15 21 0 83 71 83 94 0 10 9 16 25 16 30 0 45 28 22 41 -19 11 -63 76 -96 139 -25 49 -32 61 -75 135 -30 51 -62 84 -82 85 -6 0 -24 11 -39 25 -32 27 -29 29 42 39 33 5 46 2 60 -12 25 -26 63 -48 95 -56 37 -9 44 -25 58 -136 6 -52 15 -110 18 -128 12 -59 27 -40 30 38 2 41 7 79 12 84 11 11 80 -55 80 -77 0 -23 74 -32 164 -21 38 5 47 3 44 -7 -3 -8 -14 -15 -26 -17 -12 -2 -43 -15 -69 -29 -27 -14 -64 -29 -83 -32 -44 -8 -50 -34 -15 -67 33 -31 49 -31 43 1 -4 19 -1 25 13 25 10 0 21 5 24 11 7 11 107 59 124 59 6 0 32 21 58 47 26 26 52 46 56 45 4 -1 18 4 30 13 12 8 27 15 35 15 27 0 82 57 82 86 0 12 7 29 15 38 8 8 15 22 15 31 0 8 7 18 15 21 9 4 15 19 15 35 0 25 -4 29 -29 29 -37 0 -69 -43 -50 -66 11 -13 9 -14 -14 -9 -27 7 -38 -7 -17 -20 6 -3 10 -15 10 -26 0 -10 -4 -19 -10 -19 -5 0 -10 -6 -10 -13 0 -7 -13 -24 -30 -37 -16 -14 -29 -31 -30 -37 0 -18 -37 -16 -43 1 -7 18 -97 46 -145 46 -29 0 -45 11 -106 73 -40 39 -81 84 -91 100 -26 41 -49 36 -42 -10 5 -30 22 -52 87 -114 51 -49 80 -85 80 -98 0 -40 -27 -34 -92 19 -89 73 -125 114 -132 155 -4 19 -13 35 -20 35 -7 0 -27 7 -44 16 -18 8 -41 13 -52 9 -15 -5 -29 2 -52 24 -35 34 -53 36 -115 13z m657 -264 c0 -5 -4 -8 -9 -8 -5 0 -11 -9 -14 -21 -5 -17 -12 -20 -53 -17 -52 3 -82 30 -54 48 17 12 130 9 130 -2z m-635 -388 c3 -5 -3 -10 -14 -10 -12 0 -21 5 -21 10 0 6 6 10 14 10 8 0 18 -4 21 -10z m-65 -28 c0 -14 -11 -21 -26 -15 -21 8 -17 23 6 23 11 0 20 -4 20 -8z m-60 -37 c0 -16 -9 -19 -34 -9 -25 9 -19 24 9 24 16 0 25 -6 25 -15z m-65 -25 c8 -13 -20 -24 -41 -16 -20 8 -9 26 16 26 10 0 22 -5 25 -10z m-65 -30 c0 -15 -27 -23 -47 -16 -15 6 -15 8 -3 16 20 13 50 12 50 0z m-72 -37 c2 -8 -6 -13 -22 -13 -25 0 -33 10 -19 24 10 10 36 3 41 -11z m440 8 c23 -14 -28 -81 -120 -156 -45 -38 -91 -77 -101 -87 -10 -10 -21 -18 -25 -18 -4 0 -23 -14 -42 -31 -63 -55 -85 -74 -135 -114 -60 -48 -99 -81 -135 -115 -14 -14 -48 -43 -76 -65 -59 -48 -58 -47 -127 -113 -62 -59 -92 -63 -103 -14 -3 15 -12 42 -20 60 -8 18 -14 56 -14 85 l0 53 83 60 c96 70 160 113 197 130 8 4 17 10 20 14 15 18 110 69 390 212 85 44 162 86 170 94 17 16 20 17 38 5z m-503 -31 c8 -13 -20 -24 -41 -16 -20 8 -9 26 16 26 10 0 22 -5 25 -10z m-67 -38 c4 -14 -34 -16 -42 -3 -6 10 13 21 28 17 6 -1 12 -8 14 -14z m-130 -59 c2 -9 -7 -13 -27 -13 -30 0 -39 9 -24 24 11 10 46 3 51 -11z m682 -37 c0 -7 -8 -24 -19 -37 -12 -16 -20 -50 -25 -102 -8 -94 -13 -107 -36 -107 -10 0 -21 -8 -24 -17 -3 -10 -22 -36 -42 -58 -20 -22 -77 -85 -127 -140 -97 -107 -275 -286 -318 -322 -15 -11 -43 -29 -63 -38 -36 -17 -37 -17 -61 9 -32 34 -75 122 -75 151 0 13 6 28 14 32 11 6 112 96 196 173 9 8 45 40 81 70 111 95 122 104 149 130 14 14 48 43 76 65 27 22 54 44 60 50 27 25 73 63 119 100 28 22 52 43 53 48 6 13 42 7 42 -7z m435 -126 c4 -16 10 -32 15 -35 5 -3 26 -40 47 -83 21 -42 55 -105 75 -140 21 -34 38 -66 38 -70 0 -4 14 -33 30 -66 64 -125 58 -159 -25 -154 l-50 3 -3 79 c-2 48 -8 87 -17 100 -8 11 -15 28 -15 37 0 14 -17 56 -39 99 -5 9 -12 30 -15 47 -4 17 -14 34 -22 37 -9 3 -14 20 -14 45 0 25 -5 41 -15 45 -10 3 -15 19 -15 46 0 47 15 53 25 10z m-1315 -196 c0 -10 -42 -44 -54 -44 -32 0 -61 73 -33 83 11 4 87 -30 87 -39z m2116 -90 c19 -28 9 -48 -22 -42 -20 3 -29 29 -20 54 8 21 24 17 42 -12z m-391 -393 c33 -40 77 -97 97 -127 36 -52 37 -55 27 -106 -6 -29 -14 -78 -17 -108 -8 -63 -27 -73 -52 -25 -8 17 -18 32 -22 33 -5 2 -8 10 -8 17 0 8 -6 20 -13 27 -7 7 -24 31 -37 53 -13 22 -26 42 -30 45 -3 3 -22 30 -43 60 -37 55 -37 56 -37 156 0 55 3 104 7 108 8 8 45 -30 128 -133z m-1005 99 c0 -10 -4 -22 -10 -25 -5 -3 -10 -17 -10 -30 0 -13 5 -27 10 -30 15 -9 12 -109 -4 -152 -8 -21 -17 -55 -21 -77 -3 -21 -10 -46 -15 -55 -8 -15 -20 -41 -64 -143 -9 -20 -16 -41 -16 -46 0 -6 -6 -23 -14 -39 -26 -50 -46 -101 -46 -115 0 -8 -3 -18 -7 -22 -4 -4 -17 -33 -29 -64 -17 -46 -26 -58 -46 -60 -22 -3 -26 3 -43 55 -10 32 -24 75 -31 96 -20 53 -17 90 8 139 12 24 25 45 28 48 3 3 15 23 27 45 40 77 58 110 64 115 3 3 14 23 26 45 39 75 58 110 63 115 3 3 23 41 45 85 22 44 43 82 47 83 4 2 8 14 8 26 0 13 3 26 6 29 11 10 24 -3 24 -23z m815 -250 c1 -300 15 -393 69 -473 17 -25 17 -29 2 -46 -13 -14 -16 -40 -16 -134 0 -63 4 -127 10 -141 5 -14 12 -74 16 -133 5 -68 13 -117 22 -131 11 -16 15 -57 16 -148 l2 -126 -29 -24 c-16 -13 -33 -24 -38 -24 -5 0 -9 -7 -9 -15 0 -25 -27 -18 -149 41 -174 83 -184 89 -207 128 -20 34 -21 57 -28 369 -3 183 -11 404 -16 492 -5 88 -6 163 -2 166 4 4 21 5 39 2 29 -5 33 -9 39 -49 3 -24 10 -47 15 -50 5 -3 9 -20 9 -37 0 -18 7 -45 15 -61 8 -15 15 -39 15 -53 0 -14 6 -39 14 -56 14 -31 26 -72 50 -172 7 -27 15 -57 18 -65 8 -19 26 -107 39 -185 5 -33 14 -69 19 -80 4 -11 11 -46 14 -78 2 -32 9 -64 14 -70 5 -7 12 -34 15 -62 3 -27 13 -63 21 -80 9 -16 16 -36 16 -42 0 -7 6 -13 14 -13 21 0 29 70 11 97 -8 12 -15 36 -15 52 0 17 -6 50 -14 73 -8 24 -17 70 -21 103 -4 33 -10 65 -15 70 -4 6 -10 33 -13 62 -3 28 -10 60 -16 70 -5 10 -13 39 -16 65 -3 26 -10 50 -16 53 -5 4 -9 21 -9 38 0 18 -7 45 -15 61 -8 15 -15 40 -15 55 0 14 -7 39 -15 55 -8 15 -15 41 -15 56 0 16 -7 35 -15 44 -8 8 -15 30 -15 48 0 18 -7 46 -15 62 -8 15 -15 43 -15 61 0 27 4 34 23 37 14 2 22 10 22 23 0 13 -5 18 -15 16 -8 -3 -52 -4 -98 -2 -46 1 -92 -1 -103 -4 -23 -8 -25 -31 -3 -39 14 -6 15 -45 9 -409 -3 -221 -10 -445 -15 -497 -5 -52 -10 -105 -10 -118 0 -16 -22 -38 -82 -82 -46 -33 -87 -64 -93 -68 -32 -24 -166 -112 -171 -112 -3 0 -12 -7 -20 -15 -20 -19 -54 -19 -54 -1 0 8 4 17 9 20 13 8 48 84 57 121 4 17 10 35 14 40 4 6 11 26 14 45 4 19 11 46 16 60 5 14 18 59 30 100 12 41 28 93 35 115 7 22 21 67 30 100 10 33 24 78 30 100 7 22 21 67 30 100 10 33 21 67 26 76 4 9 11 34 15 55 3 22 10 44 14 49 4 6 11 26 15 45 4 19 11 41 16 50 4 8 18 49 30 90 13 41 27 80 32 87 5 7 6 22 2 33 l-7 22 -23 -22 c-13 -12 -33 -50 -45 -83 -12 -34 -26 -71 -30 -82 -5 -11 -18 -54 -30 -95 -12 -41 -26 -83 -31 -92 -5 -10 -13 -34 -18 -55 -28 -108 -34 -129 -41 -144 -5 -9 -12 -34 -16 -54 -4 -21 -13 -50 -20 -64 -8 -14 -14 -32 -14 -40 0 -12 -24 -91 -41 -136 -17 -45 -49 -160 -49 -177 0 -10 -4 -26 -9 -36 -6 -9 -19 -47 -29 -83 -20 -65 -65 -149 -80 -149 -12 0 -42 73 -42 103 0 14 -7 32 -15 41 -23 23 -19 63 10 82 32 21 32 38 1 30 -23 -6 -25 -3 -31 41 -3 27 -10 67 -16 91 -15 69 -30 291 -24 362 6 63 40 195 55 215 4 6 11 25 15 43 4 18 13 45 21 60 8 15 14 34 14 43 0 9 7 30 15 45 8 16 15 37 15 46 0 9 4 19 9 23 5 3 13 19 16 36 7 32 39 72 49 61 11 -10 5 -67 -9 -92 -8 -14 -15 -47 -15 -75 0 -27 -6 -77 -14 -110 -8 -33 -17 -112 -21 -175 -4 -63 -11 -122 -16 -131 -4 -9 -10 -55 -13 -101 -2 -47 -9 -95 -15 -106 -6 -11 -11 -44 -11 -72 0 -29 -7 -61 -15 -74 -13 -20 -13 -29 -3 -62 15 -45 38 -51 49 -11 6 21 3 30 -14 42 -19 14 -20 16 -4 33 9 10 17 30 17 45 0 15 13 41 31 62 28 32 31 39 20 59 -20 36 3 247 45 421 30 124 36 361 9 371 -20 8 -10 49 21 91 27 36 30 79 9 107 -23 31 -17 96 9 96 6 0 28 11 48 25 30 20 49 25 105 25 37 1 88 6 113 12 51 12 260 25 400 24 l94 -1 1 -225z m-1175 160 c0 -6 -22 -39 -49 -75 -27 -35 -62 -90 -77 -124 -30 -62 -47 -72 -52 -30 -2 13 -21 61 -44 107 -22 46 -37 86 -34 89 3 4 6 1 6 -5 0 -7 6 -12 14 -12 7 0 19 -7 26 -15 26 -32 120 -4 171 49 26 27 39 33 39 16z m1504 -65 c3 -8 14 -15 25 -15 11 0 23 -5 27 -11 9 -15 -21 -43 -40 -36 -21 8 -49 54 -41 67 9 14 22 12 29 -5z m-244 -127 c0 -8 90 -160 100 -168 3 -3 22 -30 43 -60 42 -63 46 -97 22 -195 -8 -33 -15 -76 -15 -95 0 -43 -12 -63 -34 -58 -19 3 -35 28 -66 103 -12 28 -27 64 -35 80 -27 62 -35 104 -45 235 -6 74 -14 153 -17 175 l-6 40 26 -25 c15 -14 27 -28 27 -32z m31 -550 c4 -18 20 -76 34 -128 25 -96 29 -161 16 -275 l-7 -60 -16 35 c-9 20 -20 80 -23 135 -4 55 -13 127 -21 160 -26 116 -11 238 17 133z m-1173 -91 c5 -45 -4 -60 -28 -47 -20 11 -28 58 -13 74 15 15 38 0 41 -27z m1269 13 c4 -21 -13 -44 -26 -36 -6 4 -11 18 -11 32 0 19 5 25 17 22 10 -2 19 -10 20 -18z m-567 -596 c0 -8 -9 -14 -20 -14 -19 0 -28 28 -13 43 9 9 33 -12 33 -29z"/>
<path d="M4135 4224 c-22 -13 -49 -28 -60 -34 -11 -5 -27 -14 -35 -18 -44 -25 -59 -33 -105 -56 -50 -26 -95 -59 -95 -70 0 -10 38 -7 44 3 3 5 18 12 33 16 15 3 30 10 33 13 9 13 69 52 78 52 5 0 15 7 22 15 7 8 20 15 30 15 27 0 67 24 90 53 27 34 14 39 -35 11z"/>
<path d="M4819 3265 c-8 -17 -16 -32 -20 -35 -11 -10 -18 -40 -13 -55 9 -23 33 -18 40 10 3 13 12 29 20 36 18 15 18 30 0 54 -14 19 -15 19 -27 -10z"/>
<path d="M4764 2725 c-4 -8 -3 -28 1 -43 3 -15 12 -61 19 -102 7 -41 15 -82 18 -90 4 -8 8 -36 11 -61 5 -56 36 -129 54 -129 15 0 18 52 3 78 -5 9 -14 44 -20 77 -5 33 -15 89 -21 125 -6 36 -17 78 -25 93 -8 16 -14 35 -14 42 0 21 -19 28 -26 10z"/>
<path d="M5011 4991 c-9 -6 -10 -11 -2 -15 13 -8 31 1 31 15 0 11 -11 11 -29 0z"/>
<path d="M4700 4294 c0 -73 24 -70 28 4 2 42 0 52 -12 52 -13 0 -16 -12 -16 -56z"/>
<path d="M4640 4270 c-14 -26 -5 -57 22 -71 33 -17 40 3 17 49 -12 23 -23 42 -25 42 -2 0 -8 -9 -14 -20z"/>
<path d="M4867 4216 c10 -13 32 -33 48 -45 17 -11 41 -31 55 -44 14 -13 75 -60 135 -105 61 -45 115 -86 122 -92 27 -22 93 -51 103 -45 13 8 13 35 1 35 -12 0 -84 47 -181 120 -41 30 -92 67 -112 80 -21 14 -38 28 -38 33 0 4 -5 7 -11 7 -6 0 -28 14 -49 30 -21 17 -43 30 -49 30 -6 0 -11 5 -11 10 0 6 -7 10 -15 10 -14 0 -13 -3 2 -24z"/>
<path d="M5499 3978 c6 -16 18 -24 40 -26 39 -4 43 20 6 36 -41 19 -56 16 -46 -10z"/>
<path d="M4761 3916 c-10 -11 -8 -24 8 -60 12 -25 21 -53 21 -63 0 -11 4 -23 9 -28 8 -10 34 -93 46 -147 3 -16 12 -28 20 -28 21 0 21 105 0 126 -8 9 -15 28 -15 44 0 16 -7 30 -15 34 -9 3 -15 18 -15 40 0 21 -6 36 -15 40 -8 3 -15 14 -15 25 0 26 -15 34 -29 17z"/>
<path d="M4004 1683 c-4 -15 -20 -46 -36 -69 -16 -22 -30 -56 -32 -75 -2 -19 -6 -42 -11 -52 -4 -10 -1 -27 9 -42 15 -22 23 -25 83 -25 50 0 74 5 102 22 67 41 92 97 63 138 -10 14 -21 33 -25 43 -10 28 -25 20 -36 -20 -7 -24 -7 -41 -1 -47 33 -33 -23 -86 -92 -89 -38 -2 -43 0 -39 18 2 11 3 36 3 55 -1 19 2 37 6 40 24 18 53 74 50 98 -4 38 -35 42 -44 5z"/>
</g>
</svg>